<?xml version="1.0"?>
<svg width="16" height="16" xmlns="http://www.w3.org/2000/svg" xmlns:svg="http://www.w3.org/2000/svg">
 <g class="layer">
  <title>Layer 1</title>
  <path d="m3,0c-1.66,0 -3,1.34 -3,3l0,8c0,1.66 1.34,3 3,3l6,0l0,-1l-6,0c-1.11,0 -2,-0.89 -2,-2l0,-8c0,-1.11 0.89,-2 2,-2l8,0c1.11,0 2,0.89 2,2l0,6l1,0l0,-6c0,-1.66 -1.34,-3 -3,-3l-8,0zm0.76,3.05l-0.71,0.71l4.24,4.24l-1.29,0l0,1l2,0l1,0l0,-1l0,-2l-1,0l0,1.29l-4.24,-4.24zm8.24,6.95c-1.11,0 -2,0.89 -2,2l0,2c0,1.11 0.89,2 2,2l2,0c1.11,0 2,-0.89 2,-2l0,-2c0,-1.11 -0.89,-2 -2,-2l-2,0zm2.72,5.31l0.53,-1.31c0.55,0 -0.25,-2.55 -0.25,-2l0,2c0,0.55 -0.45,1 -1,1l-2,0c-0.55,0 -0.19,-0.45 -1,-1l0.41,1.44c0,-0.55 2.76,-0.13 3.31,-0.13z" fill="#363636" id="svg_1"/>
 </g>

</svg>