<?xml version="1.0"?>
<svg width="16" height="16" xmlns="http://www.w3.org/2000/svg" xmlns:svg="http://www.w3.org/2000/svg">

 <g class="layer">
  <title>Layer 1</title>
  <g fill="#333" id="svg_5">
   <path d="m1.08,2c0,-1.1 0.9,-2 1.99,-2l9.95,0c1.09,0 1.99,0.91 1.99,2l0,11.98c0,1.13 -0.9,2 -1.99,2l-9.95,0c-1.09,0 -1.99,-0.87 -1.99,-2l0,-11.98zm1.01,0l0,11.98c0,0.57 0.45,1.02 0.98,1.02l9.95,0c0.56,0 0.98,-0.45 0.98,-1.02l0,-11.98c0,-0.57 -0.41,-1.02 -0.98,-1.02l-9.95,0c-0.53,0 -0.98,0.45 -0.98,1.02z" id="svg_6" stroke-width="0.26"/>
   <g id="svg_7" stroke-linecap="square">
    <g id="svg_8" stroke-width="0.57">
     <rect height="1" id="svg_9" ry="0.13" width="7.95" x="4.08" y="3.99"/>
     <rect height="1" id="svg_10" ry="0.13" width="7.95" x="4.08" y="6.99"/>
    </g>
    <rect height="1" id="svg_11" ry="0.13" stroke-width="0.43" width="4.54" x="4.08" y="9.99"/>
   </g>
  </g>
 </g>
</svg>