<?xml version="1.0" encoding="UTF-8"?>
<svg xmlns="http://www.w3.org/2000/svg" xmlns:xlink="http://www.w3.org/1999/xlink" width="16px" height="16px" viewBox="0 0 16 16" version="1.1">
<g id="surface1">
<path style=" stroke:none;fill-rule:nonzero;fill:rgb(21.176471%,21.176471%,21.176471%);fill-opacity:1;" d="M 12 0.667969 C 10.160156 0.667969 8.667969 2.160156 8.667969 4 L 8.667969 5.332031 L 2.667969 5.332031 C 1.933594 5.332031 1.332031 5.925781 1.332031 6.667969 L 1.332031 13.332031 C 1.332031 14.074219 1.933594 14.667969 2.667969 14.667969 L 10.667969 14.667969 C 11.40625 14.667969 12 14.074219 12 13.332031 L 12 6.667969 C 12 5.933594 11.40625 5.332031 10.667969 5.332031 L 10 5.332031 L 10 4 C 10 2.894531 10.894531 2 12 2 C 13.105469 2 14 2.894531 14 4 L 14 5.332031 L 15.332031 5.332031 L 15.332031 4 C 15.332031 2.160156 13.839844 0.667969 12 0.667969 M 6.667969 8.667969 C 7.398438 8.667969 8 9.261719 8 10 C 8 10.738281 7.40625 11.332031 6.667969 11.332031 C 5.933594 11.332031 5.332031 10.738281 5.332031 10 C 5.332031 9.265625 5.933594 8.667969 6.667969 8.667969 Z M 6.667969 8.667969 "/>
</g>
</svg>
