<?xml version="1.0"?>
<svg width="16" height="16" xmlns="http://www.w3.org/2000/svg" xmlns:svg="http://www.w3.org/2000/svg">

 <g class="layer">
  <title>Layer 1</title>
  <path d="m2,2c-1.11,0 -2,0.89 -2,2l0,9c0,1.11 0.89,2 2,2l12,0c1.11,0 2,-0.89 2,-2l0,-9c0,-1.11 -0.89,-2 -2,-2l-12,0zm0,1l4,0l0,11l-4,0c-0.55,0 -1,-0.45 -1,-1l0,-9c0,-0.55 0.45,-1 1,-1zm5,0l7,0c0.55,0 1,0.45 1,1l0,9c0,0.55 -0.45,1 -1,1l-7,0l0,-11zm-5,1l0,1l3,0l0,-1l-3,0zm0,2l0,1l3,0l0,-1l-3,0zm0,2l0,1l3,0l0,-1l-3,0z" fill="#363636" id="svg_1"/>
 </g>
</svg>