<?xml version="1.0"?>
<svg width="4.2333" height="4.2333" xmlns="http://www.w3.org/2000/svg" xmlns:svg="http://www.w3.org/2000/svg" version="1.1">
 <g class="layer">
  <title>Layer 1</title>
  <g fill="#333" id="svg_1">
   <path d="m3.7,0.53c0.3,0 0.53,0.24 0.53,0.53l0,2.38c0,0.29 -0.23,0.53 -0.53,0.53l-3.17,0c-0.29,0 -0.53,-0.24 -0.53,-0.53l0,-2.38c0,-0.29 0.24,-0.53 0.53,-0.53l3.17,0zm0,0.26l-3.17,0c-0.15,0 -0.27,0.12 -0.27,0.27l0,2.38c0,0.15 0.12,0.26 0.27,0.26l3.17,0c0.15,0 0.27,-0.11 0.27,-0.26l0,-2.38c0,-0.15 -0.12,-0.27 -0.27,-0.27z" id="svg_2" stroke-width="0.26"/>
   <rect height="2.91" id="svg_3" stroke-width="0.26" transform="translate(0.00390625) scale(-1, 1)" width="0.26" x="-2.65" y="0.79"/>
   <g id="svg_4" stroke-linecap="round" stroke-linejoin="round" stroke-width="0.53">
    <rect height="0.26" id="svg_5" width="0.79" x="2.92" y="1.03"/>
    <rect height="0.26" id="svg_6" width="0.79" x="2.93" y="1.55"/>
    <rect height="0.26" id="svg_7" width="0.79" x="2.93" y="2.07"/>
   </g>
  </g>
 </g>

</svg>