<?xml version="1.0"?>
<svg width="16" height="16" xmlns="http://www.w3.org/2000/svg" xmlns:svg="http://www.w3.org/2000/svg" version="1.1">
 <g class="layer">
  <title>Layer 1</title>
  <g id="svg_3">
   <path d="m4.07,0.5l0,1.81l-4.07,0l0,0.91l7.22,0c-0.34,1.11 -1.07,2.87 -2.64,4.48c-1.18,-1.21 -1.89,-2.55 -2.31,-3.57l-1.07,0c0.45,1.18 1.26,2.77 2.69,4.25c-0.78,0.68 -1.72,1.3 -2.87,1.82l0,1.01c1.45,-0.59 2.62,-1.34 3.56,-2.17c0.99,0.86 2.22,1.64 3.76,2.24l-1.92,3.72l1.12,0l1.4,-2.71l4.52,0l1.4,2.71l1.12,0l-4.22,-8.13l0,0l-1.12,0l-1.87,3.59c-1.44,-0.55 -2.58,-1.27 -3.49,-2.08c1.83,-1.88 2.65,-3.94 2.98,-5.13l0.91,0l0,-0.91l-4.07,0l0,-1.81l-1.02,0l-0.01,-0.01l0,-0.02zm7.13,7.4l1.79,3.45l-3.58,0l1.79,-3.45z" fill="#363636" id="svg_1"/>
   <path d="m3.89,0.33l0,1.81l-3.91,0l0.03,0.94l7.03,-0.03c-0.34,1.11 -1.07,2.87 -2.64,4.48c-1.18,-1.21 -1.8,-2.55 -2.22,-3.57l-1.16,0c0.45,1.18 1.26,2.77 2.69,4.25c-0.78,0.68 -1.72,1.3 -2.87,1.82l0,1.26c1.45,-0.59 2.62,-1.59 3.56,-2.42c0.99,0.86 2.22,1.64 3.76,2.24l-1.92,3.91l1.15,-0.03l1.37,-2.87l4.52,0l1.43,2.9l1.18,-0.03l-4.22,-8.32l0,0.03l-1.21,0l-1.87,3.59c-1.44,-0.55 -2.58,-1.27 -3.49,-2.08c1.83,-1.88 2.65,-3.94 2.98,-5.13l1.07,0l0.03,-0.88l-4.07,-0.03l0,-1.81l-1.21,0l-0.01,-0.01l0,-0.02zm7.13,7.4l1.79,3.45l-3.58,0l1.79,-3.45z" fill="#363636" id="svg_2"/>
  </g>
 </g>

</svg>