<?xml version="1.0"?>
<svg width="16" height="16" xmlns="http://www.w3.org/2000/svg" xmlns:svg="http://www.w3.org/2000/svg" version="1.1">
 <g class="layer">
  <title>Layer 1</title>
  <path d="m4.07,0.31l0,1.83l-4.07,0l0,0.92l7.22,0c-0.34,1.12 -1.07,2.91 -2.64,4.54c-1.18,-1.23 -1.89,-2.58 -2.31,-3.62l-1.07,0c0.45,1.2 1.26,2.81 2.69,4.3c-0.78,0.69 -1.72,1.32 -2.87,1.84l0,1.02c1.45,-0.6 2.62,-1.36 3.56,-2.2c0.99,0.87 2.22,1.66 3.76,2.27l-1.92,3.77l1.12,0l1.4,-2.75l4.52,0l1.4,2.75l1.12,0l-4.22,-8.24l0,0l-1.12,0l-1.87,3.64c-1.44,-0.56 -2.58,-1.29 -3.49,-2.11c1.83,-1.9 2.65,-3.99 2.98,-5.2l0.91,0l0,-0.92l-4.07,0l0,-1.83l-1.02,0l-0.01,-0.01zm7.13,7.5l1.79,3.49l-3.58,0l1.79,-3.49z" fill="#363636" id="svg_1"/>
 </g>

</svg>