<?xml version="1.0"?>
<svg width="17" height="16" xmlns="http://www.w3.org/2000/svg" xmlns:svg="http://www.w3.org/2000/svg">
 <g class="layer">
  <title>Layer 1</title>
  <path d="m15.37,15l1.63,0l-3.63,-8.22a0.75,0.72 0 0 0 -0.69,-0.44l-0.82,0c-0.3,0 -0.58,0.18 -0.7,0.44l-1.84,4.18l-0.01,-0.01a10.8,10.4 0 0 1 -3.27,-2.11a12.38,11.91 0 0 0 2.54,-4.02l0.5,-1.36l0.92,0l0,-1.45l-4.25,0l0,-1.45l-1.5,0l0,1.45l-4.25,0l0,1.45l7.5,0l-0.33,0.87c-0.47,1.26 -1.2,2.43 -2.13,3.43c-0.7,-0.87 -1.25,-1.83 -1.63,-2.86l-1.61,0l0.18,0.46a12.43,11.96 0 0 0 1.97,3.43c-0.9,0.72 -1.89,1.3 -2.96,1.71l0,1.52a12.3,11.84 0 0 0 3.96,-2.17a12.31,11.85 0 0 0 3.77,2.45l-1.19,2.71l1.64,0l1.06,-2.41l4.08,0l1.06,2.41l0,-0.02zm-4.5,-3.85l1.4,-3.18l1.4,3.18l-2.8,0z" fill="#363636" fill-rule="nonzero" id="svg_1"/>
 </g>

</svg>