<?xml version="1.0"?>
<svg width="16" height="16" xmlns="http://www.w3.org/2000/svg" xmlns:svg="http://www.w3.org/2000/svg" version="1.1">

 <g class="layer">
  <title>Layer 1</title>
  <path d="m4,0l0,2l-4,0l0,1l7.09,0c-0.33,1.22 -1.05,3.17 -2.59,4.96c-1.16,-1.35 -1.86,-2.81 -2.27,-3.96l-1.05,0c0.44,1.32 1.24,3.07 2.64,4.69c-0.77,0.75 -1.69,1.44 -2.82,2.01l0,1.11c1.42,-0.65 2.57,-1.49 3.5,-2.4c0.97,0.95 2.18,1.82 3.69,2.48l-1.89,4.11l1.1,0l1.38,-3l4.44,0l1.38,3l1.1,0l-4.15,-9l0,0l-1.1,0l-1.84,3.98c-1.41,-0.61 -2.53,-1.41 -3.43,-2.3c1.8,-2.07 2.6,-4.36 2.93,-5.68l0.89,0l0,-1l-4,0l0,-2l-1,0zm7,8.19l1.76,3.81l-3.52,0l1.76,-3.81z" fill="#363636" id="svg_1"/>
 </g>
</svg>