<?xml version="1.0"?>
<svg width="16" height="16" xmlns="http://www.w3.org/2000/svg" xmlns:svg="http://www.w3.org/2000/svg" version="1.1">

 <g class="layer">
  <title>Layer 1</title>
  <g id="surface1">
   <path d="m8,1.33c3.67,0 6.67,3 6.67,6.67c0,3.67 -3,6.67 -6.67,6.67c-3.67,0 -6.67,-3 -6.67,-6.67c0,-3.67 3,-6.67 6.67,-6.67m1.95,7.21c-0.72,0 -1.32,0.5 -1.48,1.17c-0.36,-0.16 -0.7,-0.12 -0.94,-0.01c-0.16,-0.66 -0.76,-1.16 -1.48,-1.16c-0.83,0 -1.5,0.67 -1.5,1.51c0,0.83 0.67,1.5 1.5,1.5c0.8,0 1.44,-0.6 1.5,-1.38c0.14,-0.09 0.48,-0.26 0.9,0c0.06,0.78 0.7,1.38 1.5,1.38c0.83,0 1.5,-0.67 1.5,-1.5c0,-0.84 -0.67,-1.51 -1.5,-1.51m-3.9,0.42c0.62,0 1.08,0.49 1.08,1.09c0,0.59 -0.46,1.08 -1.08,1.08c-0.59,0 -1.08,-0.49 -1.08,-1.08c0,-0.6 0.49,-1.09 1.08,-1.09m3.9,0c0.59,0 1.08,0.49 1.08,1.09c0,0.59 -0.49,1.08 -1.08,1.08c-0.62,0 -1.08,-0.49 -1.08,-1.08c0,-0.6 0.46,-1.09 1.08,-1.09m1.94,-1.29l-7.78,0l0,0.44l7.78,0l0,-0.44m-2.46,-3.08c-0.1,-0.2 -0.32,-0.3 -0.53,-0.24l-0.9,0.32l-0.9,-0.32l-0.03,-0.02c-0.21,-0.04 -0.44,0.08 -0.51,0.28l-0.99,2.61l4.86,0l-0.99,-2.61l-0.01,-0.02zm0,0" fill="#e5e5e5" fill-rule="nonzero" id="svg_1"/>
  </g>
 </g>
</svg>