<?xml version="1.0"?>
<svg width="16" height="16" xmlns="http://www.w3.org/2000/svg" xmlns:svg="http://www.w3.org/2000/svg">
 <g class="layer">
  <title>Layer 1</title>
  <path d="m13.95,5.89c-1.15,-1.51 -3.39,-1.7 -4.79,-0.41l-0.78,0.72l-0.76,0l-0.79,-0.72c-1.39,-1.29 -3.64,-1.1 -4.78,0.41c-0.15,0.58 0.08,2.74 0.21,3.08c0.26,1.37 1.38,2.41 2.72,2.41c0.68,0 1.28,-0.27 1.76,-0.7l0.3,-0.25a1.45,1.45 0 0 1 1.88,-0.02l0.44,0.37l0,-0.01a2.62,2.62 0 0 0 1.65,0.6c1.35,0 2.47,-1.03 2.73,-2.4c0.13,-0.34 0.37,-2.49 0.21,-3.08z" fill="#b2b2b2" id="svg_2" transform="matrix(1, 0, 0, 1, 0, 0)"/>
  <path d="m5.3,6.84c-0.56,0 -1.05,0.24 -1.37,0.6a0.52,0.52 0 0 0 0,0.68c0.32,0.36 0.81,0.59 1.37,0.59s1.05,-0.23 1.37,-0.59a0.52,0.52 0 0 0 0,-0.68a1.83,1.83 0 0 0 -1.37,-0.6z" fill="#53377a" id="svg_3" transform="matrix(1, 0, 0, 1, 0, 0)"/>
  <path d="m10.7,6.84c-0.56,0 -1.05,0.24 -1.37,0.6a0.52,0.52 0 0 0 0,0.68c0.32,0.36 0.81,0.59 1.37,0.59s1.05,-0.23 1.37,-0.59a0.52,0.52 0 0 0 0,-0.68a1.83,1.83 0 0 0 -1.37,-0.6z" fill="#53377a" id="svg_4"/>
 </g>

</svg>